<svg width="55" height="63" viewBox="0 0 55 63" fill="none" xmlns="http://www.w3.org/2000/svg">
<path d="M27.4997 44.5709C23.807 44.5709 20.1949 43.3065 17.3284 41.0102L4.43941 30.685C-0.779559 26.6534 -0.778822 18.3921 4.43941 14.3611L17.3284 4.03587C23.0456 -0.678745 31.9539 -0.678503 37.6709 4.03587L50.56 14.3611C53.8537 16.9997 55.2467 21.3142 54.1089 25.3528C53.7456 26.6419 52.3931 27.3966 51.0863 27.0379C49.7803 26.6794 49.0161 25.3437 49.3793 24.0545C49.9935 21.8746 49.2427 19.5466 47.4664 18.1236L34.5774 7.79831C30.4763 4.51305 24.5231 4.51305 20.422 7.79831L7.53299 18.1236C4.7191 20.2974 4.71947 24.7491 7.53299 26.9226L20.422 37.2478C24.5159 40.5273 30.4559 40.5331 34.5564 37.2645L36.7094 35.4569C37.7419 34.59 39.2909 34.7132 40.1693 35.7326C41.0475 36.7519 40.9226 38.281 39.89 39.1479L37.7144 40.9745C37.7 40.9866 37.6855 40.9985 37.6709 41.0102C34.8046 43.3065 31.1924 44.5709 27.4997 44.5709ZM37.6709 58.9393L50.56 48.6141C55.7789 44.5824 55.7782 36.3211 50.56 32.2901L37.6709 21.9649C31.9538 17.2503 23.0454 17.2506 17.3284 21.9649L15.5113 23.4361C13.0753 25.5735 16.027 29.1219 18.6243 27.1828L20.4261 25.7242C24.5272 22.4425 30.4778 22.4434 34.5774 25.7275L47.4664 36.0527C50.2803 38.2265 50.2799 42.6782 47.4664 44.8516L34.5774 55.1768C30.4763 58.4621 24.5231 58.4621 20.422 55.1768L7.53299 44.8516C5.90563 43.5479 5.12729 41.4705 5.50173 39.4304C5.74338 38.1137 4.85791 36.853 3.52411 36.6144C2.19105 36.3763 0.913092 37.2498 0.67132 38.5665C-0.0223333 42.3463 1.42143 46.1963 4.43941 48.6141L17.3284 58.9393C20.1947 61.2354 23.807 62.5 27.4997 62.5C31.1924 62.5 34.8046 61.2355 37.6709 58.9393Z" fill="#F67952"/>
</svg>
