<svg width="42" height="38" viewBox="0 0 42 38" fill="none" xmlns="http://www.w3.org/2000/svg">
<rect width="42" height="38" rx="5" fill="white"/>
<g opacity="0.3">
<path fill-rule="evenodd" clip-rule="evenodd" d="M27.9026 15.6857C27.9026 16.985 28.2442 17.7509 28.9959 18.6334C29.5656 19.2835 29.7477 20.1181 29.7477 21.0236C29.7477 21.928 29.4521 22.7865 28.8599 23.4836C28.0847 24.3192 26.9913 24.8527 25.8755 24.9454C24.2585 25.084 22.6405 25.2007 21.001 25.2007C19.3605 25.2007 17.7435 25.1309 16.1265 24.9454C15.0096 24.8527 13.9163 24.3192 13.1421 23.4836C12.5499 22.7865 12.2533 21.928 12.2533 21.0236C12.2533 20.1181 12.4364 19.2835 13.005 18.6334C13.7803 17.7509 14.0994 16.985 14.0994 15.6857V15.245C14.0994 13.505 14.531 12.3672 15.4198 11.2533C16.7412 9.62896 18.8593 8.65475 20.955 8.65475H21.047C23.1877 8.65475 25.3743 9.67585 26.6732 11.37C27.516 12.4609 27.9026 13.5508 27.9026 15.245V15.6857ZM17.9896 27.339C17.9896 26.8181 18.4651 26.5795 18.9049 26.4774C19.4194 26.368 22.5541 26.368 23.0686 26.4774C23.5084 26.5795 23.984 26.8181 23.984 27.339C23.9584 27.835 23.669 28.2747 23.2691 28.5539C22.7505 28.9603 22.142 29.2177 21.5058 29.3104C21.154 29.3562 20.8083 29.3573 20.4687 29.3104C19.8315 29.2177 19.223 28.9603 18.7055 28.5529C18.3046 28.2747 18.0151 27.835 17.9896 27.339Z" fill="#1C1A19"/>
</g>
<path d="M30.3224 11.6481C30.3224 14.0336 28.3999 15.9605 26.0366 15.9605C23.6734 15.9605 21.7509 14.0336 21.7509 11.6481C21.7509 9.26272 23.6734 7.33572 26.0366 7.33572C28.3999 7.33572 30.3224 9.26272 30.3224 11.6481Z" fill="#F67952" stroke="white" stroke-width="1.5"/>
</svg>
